<svg width="80" height="80" viewBox="0 0 80 80" fill="none" xmlns="http://www.w3.org/2000/svg">
<path d="M29.9998 73.3337H49.9998C66.6665 73.3337 73.3332 66.667 73.3332 50.0003V30.0003C73.3332 13.3337 66.6665 6.66699 49.9998 6.66699H29.9998C13.3332 6.66699 6.6665 13.3337 6.6665 30.0003V50.0003C6.6665 66.667 13.3332 73.3337 29.9998 73.3337Z" stroke="#9F9F9F" stroke-width="1.5" stroke-linecap="round" stroke-linejoin="round"/>
<path d="M30.0002 33.3333C33.6821 33.3333 36.6668 30.3486 36.6668 26.6667C36.6668 22.9848 33.6821 20 30.0002 20C26.3183 20 23.3335 22.9848 23.3335 26.6667C23.3335 30.3486 26.3183 33.3333 30.0002 33.3333Z" stroke="#9F9F9F" stroke-width="1.5" stroke-linecap="round" stroke-linejoin="round"/>
<path d="M8.8999 63.1662L25.3332 52.1329C27.9666 50.3662 31.7666 50.5662 34.1332 52.5995L35.2332 53.5662C37.8332 55.7995 42.0332 55.7995 44.6332 53.5662L58.4999 41.6662C61.0999 39.4329 65.2999 39.4329 67.8999 41.6662L73.3332 46.3329" stroke="#9F9F9F" stroke-width="1.5" stroke-linecap="round" stroke-linejoin="round"/>
</svg>
